<svg xmlns="http://www.w3.org/2000/svg" viewBox="0 0 138 57">
  <rect fill="#f9ac00" height="55.5" rx="4.5" width="136.5" x=".75" y=".75"></rect>
  <path fill="none" stroke="#000" stroke-width="6" d="M122.5 41.24L93.25 12M93.5 41.25L122.75 12ZM16.5 44V19L30.25 32.75l14-14v25M70.5 40V10.75ZM57 27.25L70.5 40.75l13.5-13.5" />
  <path fill="none" stroke="#dd0000" stroke-width="2" d="M12 47l3 3l3-3l3 3l3-3l3 3l3-3l3 3l3-3l3 3l3-3l3 3l3-3l3 3l3-3l3 3l3-3l3 3l3-3l3 3l3-3l3 3l3-3l3 3l3-3l3 3l3-3l3 3l3-3l3 3l3-3l3 3l3-3l3 3l3-3l3 3l3-3l3 3l3-3" />
</svg>
